{
    "asset" : {
        "generator" : "Khronos glTF Blender I/O v1.6.16",
        "version" : "2.0"
    },
    "scene" : 0,
    "scenes" : [
        {
            "name" : "Scene",
            "nodes" : [
                0
            ]
        }
    ],
    "nodes" : [
        {
            "mesh" : 0,
            "name" : "Cone.001",
            "rotation" : [
                0.6054884791374207,
                -0.35752326250076294,
                0.3496558368206024,
                -0.619113564491272
            ],
            "scale" : [
                3.386115789413452,
                3.386115550994873,
                3.386115789413452
            ],
            "translation" : [
                0,
                0.20751217007637024,
                -3.4427082538604736
            ]
        }
    ],
    "materials" : [
        {
            "doubleSided" : true,
            "name" : "Material.001",
            "pbrMetallicRoughness" : {
                "baseColorFactor" : [
                    0,
                    0,
                    0,
                    1
                ],
                "metallicFactor" : 0,
                "roughnessFactor" : 0.5
            }
        },
        {
            "doubleSided" : true,
            "name" : "Material.003",
            "pbrMetallicRoughness" : {
                "baseColorFactor" : [
                    0.5787253379821777,
                    1,
                    0.7744492292404175,
                    1
                ],
                "metallicFactor" : 0,
                "roughnessFactor" : 0.5
            }
        }
    ],
    "meshes" : [
        {
            "name" : "Cone.010",
            "primitives" : [
                {
                    "attributes" : {
                        "POSITION" : 0,
                        "NORMAL" : 1,
                        "TEXCOORD_0" : 2
                    },
                    "indices" : 3,
                    "material" : 0
                },
                {
                    "attributes" : {
                        "POSITION" : 4,
                        "NORMAL" : 5,
                        "TEXCOORD_0" : 6
                    },
                    "indices" : 7,
                    "material" : 1
                }
            ]
        }
    ],
    "accessors" : [
        {
            "bufferView" : 0,
            "componentType" : 5126,
            "count" : 226,
            "max" : [
                0.9636528491973877,
                0.9950000047683716,
                0.6163719892501831
            ],
            "min" : [
                -0.9804217219352722,
                -2.980522632598877,
                -1.1100000143051147
            ],
            "type" : "VEC3"
        },
        {
            "bufferView" : 1,
            "componentType" : 5126,
            "count" : 226,
            "type" : "VEC3"
        },
        {
            "bufferView" : 2,
            "componentType" : 5126,
            "count" : 226,
            "type" : "VEC2"
        },
        {
            "bufferView" : 3,
            "componentType" : 5123,
            "count" : 432,
            "type" : "SCALAR"
        },
        {
            "bufferView" : 4,
            "componentType" : 5126,
            "count" : 688,
            "max" : [
                0.9612882137298584,
                0.9950000047683716,
                0.6369618773460388
            ],
            "min" : [
                -0.9613935351371765,
                -2.980522632598877,
                -1.1100000143051147
            ],
            "type" : "VEC3"
        },
        {
            "bufferView" : 5,
            "componentType" : 5126,
            "count" : 688,
            "type" : "VEC3"
        },
        {
            "bufferView" : 6,
            "componentType" : 5126,
            "count" : 688,
            "type" : "VEC2"
        },
        {
            "bufferView" : 7,
            "componentType" : 5123,
            "count" : 1236,
            "type" : "SCALAR"
        }
    ],
    "bufferViews" : [
        {
            "buffer" : 0,
            "byteLength" : 2712,
            "byteOffset" : 0
        },
        {
            "buffer" : 0,
            "byteLength" : 2712,
            "byteOffset" : 2712
        },
        {
            "buffer" : 0,
            "byteLength" : 1808,
            "byteOffset" : 5424
        },
        {
            "buffer" : 0,
            "byteLength" : 864,
            "byteOffset" : 7232
        },
        {
            "buffer" : 0,
            "byteLength" : 8256,
            "byteOffset" : 8096
        },
        {
            "buffer" : 0,
            "byteLength" : 8256,
            "byteOffset" : 16352
        },
        {
            "buffer" : 0,
            "byteLength" : 5504,
            "byteOffset" : 24608
        },
        {
            "buffer" : 0,
            "byteLength" : 2472,
            "byteOffset" : 30112
        }
    ],
    "buffers" : [
        {
            "byteLength" : 32584,
            "uri" : "data:application/octet-stream;base64,"
        }
    ]
}
