{
    "asset" : {
        "generator" : "Khronos glTF Blender I/O v1.6.16",
        "version" : "2.0"
    },
    "scene" : 0,
    "scenes" : [
        {
            "name" : "Scene",
            "nodes" : [
                0
            ]
        }
    ],
    "nodes" : [
        {
            "mesh" : 0,
            "name" : "Cone.001",
            "rotation" : [
                0.6137190461158752,
                -0.35281211137771606,
                0.35440897941589355,
                -0.6109557151794434
            ],
            "scale" : [
                3.386115789413452,
                3.386115550994873,
                3.386115789413452
            ],
            "translation" : [
                0,
                0.2765277624130249,
                0
            ]
        }
    ],
    "materials" : [
        {
            "doubleSided" : true,
            "name" : "Material.001",
            "pbrMetallicRoughness" : {
                "baseColorFactor" : [
                    0,
                    0,
                    0,
                    1
                ],
                "metallicFactor" : 0,
                "roughnessFactor" : 0.5
            }
        },
        {
            "doubleSided" : true,
            "name" : "Material.003",
            "pbrMetallicRoughness" : {
                "baseColorFactor" : [
                    0.5787253379821777,
                    1,
                    0.7744492292404175,
                    1
                ],
                "metallicFactor" : 0,
                "roughnessFactor" : 0.5
            }
        }
    ],
    "meshes" : [
        {
            "name" : "Cone.010",
            "primitives" : [
                {
                    "attributes" : {
                        "POSITION" : 0,
                        "NORMAL" : 1,
                        "TEXCOORD_0" : 2
                    },
                    "indices" : 3,
                    "material" : 0
                },
                {
                    "attributes" : {
                        "POSITION" : 4,
                        "NORMAL" : 5,
                        "TEXCOORD_0" : 6
                    },
                    "indices" : 7,
                    "material" : 1
                }
            ]
        }
    ],
    "accessors" : [
        {
            "bufferView" : 0,
            "componentType" : 5126,
            "count" : 226,
            "max" : [
                1.0429778099060059,
                2.0099267959594727,
                0.5705927014350891
            ],
            "min" : [
                -0.9010968208312988,
                -1.9655959606170654,
                -1.1557793617248535
            ],
            "type" : "VEC3"
        },
        {
            "bufferView" : 1,
            "componentType" : 5126,
            "count" : 226,
            "type" : "VEC3"
        },
        {
            "bufferView" : 2,
            "componentType" : 5126,
            "count" : 226,
            "type" : "VEC2"
        },
        {
            "bufferView" : 3,
            "componentType" : 5123,
            "count" : 432,
            "type" : "SCALAR"
        },
        {
            "bufferView" : 4,
            "componentType" : 5126,
            "count" : 686,
            "max" : [
                1.0406131744384766,
                2.0099267959594727,
                0.5911825895309448
            ],
            "min" : [
                -0.8820686340332031,
                -1.9655959606170654,
                -1.1557793617248535
            ],
            "type" : "VEC3"
        },
        {
            "bufferView" : 5,
            "componentType" : 5126,
            "count" : 686,
            "type" : "VEC3"
        },
        {
            "bufferView" : 6,
            "componentType" : 5126,
            "count" : 686,
            "type" : "VEC2"
        },
        {
            "bufferView" : 7,
            "componentType" : 5123,
            "count" : 1236,
            "type" : "SCALAR"
        }
    ],
    "bufferViews" : [
        {
            "buffer" : 0,
            "byteLength" : 2712,
            "byteOffset" : 0
        },
        {
            "buffer" : 0,
            "byteLength" : 2712,
            "byteOffset" : 2712
        },
        {
            "buffer" : 0,
            "byteLength" : 1808,
            "byteOffset" : 5424
        },
        {
            "buffer" : 0,
            "byteLength" : 864,
            "byteOffset" : 7232
        },
        {
            "buffer" : 0,
            "byteLength" : 8232,
            "byteOffset" : 8096
        },
        {
            "buffer" : 0,
            "byteLength" : 8232,
            "byteOffset" : 16328
        },
        {
            "buffer" : 0,
            "byteLength" : 5488,
            "byteOffset" : 24560
        },
        {
            "buffer" : 0,
            "byteLength" : 2472,
            "byteOffset" : 30048
        }
    ],
    "buffers" : [
        {
            "byteLength" : 32520,
            "uri" : "data:application/octet-stream;base64,"
        }
    ]
}
