{
    "asset" : {
        "generator" : "Khronos glTF Blender I/O v1.6.16",
        "version" : "2.0"
    },
    "scene" : 0,
    "scenes" : [
        {
            "name" : "Scene",
            "nodes" : [
                0
            ]
        }
    ],
    "nodes" : [
        {
            "mesh" : 0,
            "name" : "Cone",
            "scale" : [
                3.2904505729675293,
                3.2904505729675293,
                3.2904505729675293
            ],
            "translation" : [
                0,
                1.2037627696990967,
                0
            ]
        }
    ],
    "materials" : [
        {
            "doubleSided" : true,
            "name" : "Material.001",
            "pbrMetallicRoughness" : {
                "baseColorFactor" : [
                    0,
                    0,
                    0,
                    1
                ],
                "metallicFactor" : 0,
                "roughnessFactor" : 0.5
            }
        },
        {
            "doubleSided" : true,
            "name" : "Material.003",
            "pbrMetallicRoughness" : {
                "baseColorFactor" : [
                    0.48843953013420105,
                    0.3170604705810547,
                    0.5070675611495972,
                    1
                ],
                "metallicFactor" : 0,
                "roughnessFactor" : 0.5
            }
        }
    ],
    "meshes" : [
        {
            "name" : "Cone",
            "primitives" : [
                {
                    "attributes" : {
                        "POSITION" : 0,
                        "NORMAL" : 1,
                        "TEXCOORD_0" : 2
                    },
                    "indices" : 3,
                    "material" : 0
                },
                {
                    "attributes" : {
                        "POSITION" : 4,
                        "NORMAL" : 5,
                        "TEXCOORD_0" : 6
                    },
                    "indices" : 7,
                    "material" : 1
                }
            ]
        }
    ],
    "accessors" : [
        {
            "bufferView" : 0,
            "componentType" : 5126,
            "count" : 113,
            "max" : [
                0.9612882137298584,
                0.9950000047683716,
                0.6163719892501831
            ],
            "min" : [
                -0.9803401231765747,
                -0.9950000047683716,
                -1.1100000143051147
            ],
            "type" : "VEC3"
        },
        {
            "bufferView" : 1,
            "componentType" : 5126,
            "count" : 113,
            "type" : "VEC3"
        },
        {
            "bufferView" : 2,
            "componentType" : 5126,
            "count" : 113,
            "type" : "VEC2"
        },
        {
            "bufferView" : 3,
            "componentType" : 5123,
            "count" : 216,
            "type" : "SCALAR"
        },
        {
            "bufferView" : 4,
            "componentType" : 5126,
            "count" : 344,
            "max" : [
                0.9612882137298584,
                0.9950000047683716,
                0.6369618773460388
            ],
            "min" : [
                -0.9612882733345032,
                -1.0978373289108276,
                -1.1100000143051147
            ],
            "type" : "VEC3"
        },
        {
            "bufferView" : 5,
            "componentType" : 5126,
            "count" : 344,
            "type" : "VEC3"
        },
        {
            "bufferView" : 6,
            "componentType" : 5126,
            "count" : 344,
            "type" : "VEC2"
        },
        {
            "bufferView" : 7,
            "componentType" : 5123,
            "count" : 618,
            "type" : "SCALAR"
        }
    ],
    "bufferViews" : [
        {
            "buffer" : 0,
            "byteLength" : 1356,
            "byteOffset" : 0
        },
        {
            "buffer" : 0,
            "byteLength" : 1356,
            "byteOffset" : 1356
        },
        {
            "buffer" : 0,
            "byteLength" : 904,
            "byteOffset" : 2712
        },
        {
            "buffer" : 0,
            "byteLength" : 432,
            "byteOffset" : 3616
        },
        {
            "buffer" : 0,
            "byteLength" : 4128,
            "byteOffset" : 4048
        },
        {
            "buffer" : 0,
            "byteLength" : 4128,
            "byteOffset" : 8176
        },
        {
            "buffer" : 0,
            "byteLength" : 2752,
            "byteOffset" : 12304
        },
        {
            "buffer" : 0,
            "byteLength" : 1236,
            "byteOffset" : 15056
        }
    ],
    "buffers" : [
        {
            "byteLength" : 16292,
            "uri" : "data:application/octet-stream;base64,"
        }
    ]
}
